<svg width="34" height="34" viewBox="0 0 34 34" fill="none" xmlns="http://www.w3.org/2000/svg">
<g id="emojione:flag-for-china">
<path id="Vector" d="M17 32.9375C25.802 32.9375 32.9375 25.802 32.9375 17C32.9375 8.19796 25.802 1.0625 17 1.0625C8.19796 1.0625 1.0625 8.19796 1.0625 17C1.0625 25.802 8.19796 32.9375 17 32.9375Z" fill="#ED4C5C"/>
<path id="Vector_2" d="M11.6875 15.0875L15.9375 18.0625L14.3438 13.175L18.5938 10.0938H13.3344L11.6875 5.3125L10.0938 10.0938H4.78125L9.03125 13.175L7.4375 18.0625L11.6875 15.0875ZM18.7531 18.7531L17.5312 19.0187L18.7 19.4969V20.7188L19.4969 19.8156L20.6656 20.2406L19.975 19.2313L20.7188 18.275L19.4969 18.5406L18.7531 17.5312V18.7531ZM20.5594 15.1406L19.6562 15.9375L20.8781 15.8312L21.4094 17L21.6219 15.7781L22.8438 15.6719L21.7812 15.0344L22.0469 13.8125L21.1437 14.6094L20.0812 13.9719L20.5594 15.1406ZM20.8781 10.9969L21.25 12.2188L21.6219 11.05H22.8438L21.8875 10.3062L22.2594 9.08438L21.25 9.82812L20.2938 9.03125L20.6656 10.2531L19.6562 10.9438L20.8781 10.9969ZM18.7531 6.74687V7.96875L19.4969 6.95938L20.7188 7.225L19.975 6.26875L20.6656 5.25937L19.4969 5.7375L18.7 4.78125V6.00313L17.5312 6.48125L18.7531 6.74687Z" fill="#FFE62E"/>
</g>
</svg>
