<svg width="24" height="25" viewBox="0 0 24 25" fill="none" xmlns="http://www.w3.org/2000/svg">
<g id="vuesax/linear/eye-slash">
<g id="eye-slash">
<path id="Vector" d="M14.5299 10.4399L9.46992 15.4999C8.81992 14.8499 8.41992 13.9599 8.41992 12.9699C8.41992 10.9899 10.0199 9.38989 11.9999 9.38989C12.9899 9.38989 13.8799 9.78989 14.5299 10.4399Z" stroke="#1A1C1E" stroke-width="1.5" stroke-linecap="round" stroke-linejoin="round"/>
<path id="Vector_2" d="M17.8198 6.73989C16.0698 5.41989 14.0698 4.69989 11.9998 4.69989C8.46984 4.69989 5.17984 6.77989 2.88984 10.3799C1.98984 11.7899 1.98984 14.1599 2.88984 15.5699C3.67984 16.8099 4.59984 17.8799 5.59984 18.7399" stroke="#1A1C1E" stroke-width="1.5" stroke-linecap="round" stroke-linejoin="round"/>
<path id="Vector_3" d="M8.41992 20.4999C9.55992 20.9799 10.7699 21.2399 11.9999 21.2399C15.5299 21.2399 18.8199 19.1599 21.1099 15.5599C22.0099 14.1499 22.0099 11.7799 21.1099 10.3699C20.7799 9.84987 20.4199 9.35987 20.0499 8.89987" stroke="#1A1C1E" stroke-width="1.5" stroke-linecap="round" stroke-linejoin="round"/>
<path id="Vector_4" d="M15.5104 13.6699C15.2504 15.0799 14.1004 16.2299 12.6904 16.4899" stroke="#1A1C1E" stroke-width="1.5" stroke-linecap="round" stroke-linejoin="round"/>
<path id="Vector_5" d="M9.47 15.4999L2 22.9699" stroke="#1A1C1E" stroke-width="1.5" stroke-linecap="round" stroke-linejoin="round"/>
<path id="Vector_6" d="M22.0003 2.96988L14.5303 10.4399" stroke="#1A1C1E" stroke-width="1.5" stroke-linecap="round" stroke-linejoin="round"/>
</g>
</g>
</svg>
