<svg width="28" height="27" viewBox="0 0 28 27" fill="none" xmlns="http://www.w3.org/2000/svg">
<g id="Group 427320668">
<path id="Subtract" fill-rule="evenodd" clip-rule="evenodd" d="M14.2945 26.9699C21.742 26.9699 27.7794 20.9325 27.7794 13.4849C27.7794 10.8111 27.0012 8.31899 25.6589 6.22281C25.5789 6.23035 25.4955 6.23417 25.409 6.23417H16.1283V12.5884H24.7346C25.7943 12.5884 26.4045 13.1632 26.4045 14.185C26.4045 15.2387 25.7943 15.8454 24.7346 15.8454H16.1283V23.5727C16.1283 24.9777 15.4539 25.744 14.1372 25.744C12.7885 25.744 12.0178 24.9777 12.0178 23.5727V5.14852C12.0178 3.74356 12.7885 2.97721 14.2015 2.97721H22.747C20.4346 1.11479 17.4947 0 14.2945 0C6.84698 0 0.80957 6.03741 0.80957 13.4849C0.80957 20.9325 6.84698 26.9699 14.2945 26.9699Z" fill="url(#paint0_linear_823_49007)"/>
</g>
<defs>
<linearGradient id="paint0_linear_823_49007" x1="11.0576" y1="4.009" x2="17.7259" y2="28.5764" gradientUnits="userSpaceOnUse">
<stop stop-color="#2AAC95"/>
<stop offset="0.989583" stop-color="#76D1F7"/>
</linearGradient>
</defs>
</svg>
