<svg width="56" height="17" viewBox="0 0 56 17" fill="none" xmlns="http://www.w3.org/2000/svg">
<g id="Finlab">
<path d="M1.57646 16.0487C2.42959 16.0487 2.86656 15.5493 2.86656 14.6337V9.59817H8.44314C9.1298 9.59817 9.52516 9.20282 9.52516 8.51615C9.52516 7.85029 9.1298 7.47575 8.44314 7.47575H2.86656V3.33493H8.88011C9.58758 3.33493 9.96213 2.93958 9.96213 2.25291C9.96213 1.58705 9.58758 1.2125 8.88011 1.2125H1.61808C0.70252 1.2125 0.203125 1.7119 0.203125 2.62746V14.6337C0.203125 15.5493 0.70252 16.0487 1.57646 16.0487Z" fill="white"/>
<path d="M13.1367 3.62624C14.1355 3.62624 14.6765 3.12685 14.6765 2.25291C14.6765 1.35816 14.1355 0.879575 13.1367 0.879575C12.1587 0.879575 11.5969 1.35816 11.5969 2.25291C11.5969 3.12685 12.1587 3.62624 13.1367 3.62624ZM13.1367 16.0279C13.9898 16.0279 14.4476 15.5077 14.4476 14.6129V6.97635C14.4476 6.06079 13.969 5.5614 13.1367 5.5614C12.3043 5.5614 11.8466 6.06079 11.8466 6.97635V14.6129C11.8466 15.5077 12.3043 16.0279 13.1367 16.0279Z" fill="white"/>
<path d="M17.8161 16.0487C18.6692 16.0487 19.127 15.5701 19.127 14.717V10.16C19.127 8.57858 20.1049 7.53817 21.6239 7.53817C22.8724 7.53817 23.455 8.22484 23.455 9.80625V14.717C23.455 15.5701 23.9336 16.0487 24.766 16.0487C25.5983 16.0487 26.0561 15.5701 26.0561 14.717V9.68141C26.0561 6.8515 24.8908 5.49898 22.4563 5.49898C20.9997 5.49898 19.7512 6.12322 19.0645 7.28847V6.8515C19.0645 5.99837 18.6068 5.54059 17.7952 5.54059C16.9837 5.54059 16.5259 5.99837 16.5259 6.8515V14.717C16.5259 15.5701 16.9837 16.0487 17.8161 16.0487Z" fill="white"/>
<path d="M31.5486 16.0903C31.8399 16.0903 32.152 16.0695 32.4433 16.0279C33.0884 15.9446 33.3381 15.5701 33.3381 14.8626C33.3381 14.0719 33.2341 13.8638 32.8387 13.9055C32.6514 13.9263 32.4641 13.9471 32.2353 13.9471C31.2365 13.9471 30.6747 13.3436 30.6747 12.0743V2.35695C30.6747 1.50382 30.1961 1.04604 29.3637 1.04604C28.5314 1.04604 28.0736 1.50382 28.0736 2.35695V12.1992C28.0736 14.7586 29.2389 16.0903 31.5486 16.0903Z" fill="white"/>
<path d="M37.4443 16.0903C38.88 16.0903 39.9412 15.4036 40.399 14.2592V14.717C40.399 15.5701 40.836 16.0487 41.6267 16.0487C42.3966 16.0487 42.8336 15.5701 42.8336 14.717V9.72302C42.8336 6.83069 41.4186 5.49898 38.4431 5.49898C37.4651 5.49898 36.2582 5.70706 34.9889 6.22726C33.6988 6.74746 34.2606 8.72423 35.5924 8.09999C36.612 7.6214 37.5483 7.45494 38.3598 7.45494C39.7956 7.45494 40.3574 8.01676 40.3574 9.4109V9.84787H39.6291C35.2178 9.84787 33.6364 10.6386 33.6364 12.865C33.6364 14.6962 35.2386 16.0903 37.4443 16.0903ZM37.9853 14.3008C36.8408 14.3008 36.175 13.6558 36.175 12.7402C36.175 11.679 37.0489 11.3461 39.6499 11.3461H40.3574V11.8038C40.3574 13.2604 39.3378 14.3008 37.9853 14.3008Z" fill="white"/>
<path d="M50.7172 16.0903C53.3807 16.0903 55.191 14.0511 55.191 10.7842C55.191 7.51736 53.4015 5.49898 50.7172 5.49898C49.2815 5.49898 48.0538 6.16483 47.4504 7.20524V2.35695C47.4504 1.50382 46.9718 1.04604 46.1395 1.04604C45.3071 1.04604 44.8494 1.50382 44.8494 2.35695V14.717C44.8494 15.5701 45.3071 16.0487 46.1395 16.0487C46.951 16.0487 47.4088 15.5701 47.4088 14.717V14.28C47.9914 15.4036 49.2399 16.0903 50.7172 16.0903ZM49.989 14.1135C48.4284 14.1135 47.4088 12.9899 47.4088 10.7842C47.4088 8.57858 48.4284 7.47575 49.989 7.47575C51.5288 7.47575 52.5692 8.57858 52.5692 10.7842C52.5692 12.9899 51.5288 14.1135 49.989 14.1135Z" fill="white"/>
</g>
</svg>
