<svg width="52" height="51" viewBox="0 0 52 51" fill="none" xmlns="http://www.w3.org/2000/svg">
<g id="vuesax/bold/tick-circle">
<g id="tick-circle">
<path id="Vector" d="M26 4.25C14.2912 4.25 4.75 13.7912 4.75 25.5C4.75 37.2088 14.2912 46.75 26 46.75C37.7088 46.75 47.25 37.2088 47.25 25.5C47.25 13.7912 37.7088 4.25 26 4.25ZM36.1575 20.6125L24.1087 32.6612C23.8112 32.9587 23.4075 33.1287 22.9825 33.1287C22.5575 33.1287 22.1537 32.9587 21.8563 32.6612L15.8425 26.6475C15.2262 26.0312 15.2262 25.0112 15.8425 24.395C16.4587 23.7787 17.4787 23.7787 18.095 24.395L22.9825 29.2825L33.905 18.36C34.5212 17.7438 35.5413 17.7438 36.1575 18.36C36.7738 18.9763 36.7738 19.975 36.1575 20.6125Z" fill="white"/>
</g>
</g>
</svg>
